<svg xmlns="http://www.w3.org/2000/svg" width="60" height="83" viewBox="0 0 68 84">
  <g id="Group_8" data-name="Group 8" transform="translate(-67 -28)">
    <circle id="Ellipse_29" data-name="Ellipse 29" cx="5" cy="5" r="5" transform="translate(106 28)" fill="#f8e080"/>
    <circle id="Ellipse_30" data-name="Ellipse 30" cx="5" cy="5" r="5" transform="translate(106 102)" fill="#f8e080"/>
    <circle id="Ellipse_34" data-name="Ellipse 34" cx="5" cy="5" r="5" transform="translate(87 98)" fill="#f8e080"/>
    <circle id="Ellipse_35" data-name="Ellipse 35" cx="5" cy="5" r="5" transform="translate(72 84)" fill="#f8e080"/>
    <circle id="Ellipse_36" data-name="Ellipse 36" cx="5" cy="5" r="5" transform="translate(67 65)" fill="#f8e080"/>
    <circle id="Ellipse_35-2" data-name="Ellipse 35" cx="5" cy="5" r="5" transform="translate(72 46)" fill="#f8e080"/>
    <circle id="Ellipse_37" data-name="Ellipse 37" cx="5" cy="5" r="5" transform="translate(86 33)" fill="#f8e080"/>
    <circle id="Ellipse_34-2" data-name="Ellipse 34" cx="5" cy="5" r="5" transform="translate(125 98)" fill="#f8e080"/>
    <circle id="Ellipse_38" data-name="Ellipse 38" cx="5" cy="5" r="5" transform="translate(125 33)" fill="#f8e080"/>
    <circle id="Ellipse_41" data-name="Ellipse 41" cx="3" cy="3" r="3" transform="translate(106.716 45.919) rotate(11)" fill="#bc6677"/>
    <circle id="Ellipse_46" data-name="Ellipse 46" cx="3" cy="3" r="3" transform="translate(119.522 50.456) rotate(11)" fill="#bc6677"/>
    <circle id="Ellipse_47" data-name="Ellipse 47" cx="3" cy="3" r="3" transform="translate(93.716 49.919) rotate(11)" fill="#bc6677"/>
    <circle id="Ellipse_48" data-name="Ellipse 48" cx="3" cy="3" r="3" transform="translate(85.716 60.919) rotate(11)" fill="#bc6677"/>
    <circle id="Ellipse_49" data-name="Ellipse 49" cx="3" cy="3" r="3" transform="translate(85.716 73.919) rotate(11)" fill="#bc6677"/>
    <circle id="Ellipse_50" data-name="Ellipse 50" cx="3" cy="3" r="3" transform="translate(93.716 84.919) rotate(11)" fill="#bc6677"/>
    <circle id="Ellipse_51" data-name="Ellipse 51" cx="3" cy="3" r="3" transform="translate(106.522 88.456) rotate(11)" fill="#bc6677"/>
    <circle id="Ellipse_52" data-name="Ellipse 52" cx="3" cy="3" r="3" transform="translate(119.522 85.456) rotate(11)" fill="#bc6677"/>
  </g>
</svg>
