<svg xmlns="http://www.w3.org/2000/svg" width="28.311" height="28.305" viewBox="0 0 28.311 28.305">
  <g id="Group_7" data-name="Group 7" transform="translate(-860.776 -502.234)">
    <path id="Path_16" data-name="Path 16" d="M24.077,364.641c-2.5,2.495-16.168,7.286-16.168,7.286s4.791-13.773,7.286-16.168a6.281,6.281,0,1,1,8.882,8.883Z" transform="matrix(0.719, -0.695, 0.695, 0.719, 610.618, 267.121)" fill="#fff"/>
    <path id="Path_17" data-name="Path 17" d="M.3,366.261a.8.8,0,0,1-.2-1c.5-1.4,4.99-13.972,7.485-16.567a7.155,7.155,0,0,1,5.19-2.1,7.583,7.583,0,0,1,5.19,2.1,7.17,7.17,0,0,1,0,10.28C15.374,361.57,2.8,365.962,1.4,366.461A1.386,1.386,0,0,1,.3,366.261ZM12.779,348.5a5.453,5.453,0,0,0-3.792,1.6c-1.6,1.6-4.691,9.282-6.288,13.873,4.491-1.7,12.176-4.691,13.873-6.288a5.241,5.241,0,0,0,0-7.485A4.955,4.955,0,0,0,12.779,348.5Z" transform="matrix(0.719, -0.695, 0.695, 0.719, 620.007, 266.901)" fill="#183651"/>
    <path id="Path_18" data-name="Path 18" d="M48.081,386.513c1.7-4.292,3.493-8.184,4.292-8.982a3.439,3.439,0,0,1,2.3-1,2.89,2.89,0,0,1,2.3,1,3.313,3.313,0,0,1,0,4.691C56.265,383.12,52.472,384.817,48.081,386.513Z" transform="matrix(0.719, -0.695, 0.695, 0.719, 571.644, 277.265)" fill="#fbbd5e"/>
  </g>
</svg>
