<svg xmlns="http://www.w3.org/2000/svg" width="72.845" height="73.552" viewBox="0 0 72.845 73.552">
  <g id="Group_6" data-name="Group 6" transform="translate(-924.077 -417.332)">
    <path id="Path_8" data-name="Path 8" d="M193.054,360.2l-17.366,7.385,3.992-5.888-.4-3.693a54.494,54.494,0,0,0,12.974-5.888h0Z" transform="matrix(0.719, -0.695, 0.695, 0.719, 591.296, 347.017)" fill="#e0e4e8"/>
    <path id="Path_9" data-name="Path 9" d="M167.739,361.821a1.046,1.046,0,0,1-.1-1.2l3.792-5.589-.4-3.293a.972.972,0,0,1,.7-1.1,48.616,48.616,0,0,0,12.675-5.789,1.046,1.046,0,0,1,1.2.1.863.863,0,0,1,.3.6l.9,8.084a1,1,0,0,1-.6,1l-17.465,7.385C168.438,362.32,168.039,362.22,167.739,361.821Zm5.389-9.481.3,2.894a.95.95,0,0,1-.2.7l-2.1,3.094,13.673-5.789-.6-5.789A54.983,54.983,0,0,1,173.129,352.34Z" transform="matrix(0.719, -0.695, 0.695, 0.719, 600.927, 346.698)" fill="#183651"/>
    <path id="Path_10" data-name="Path 10" d="M38.757,204.511l-3.693-.4L29.176,208.1l7.385-17.465,8.084.9h0A54.5,54.5,0,0,0,38.757,204.511Z" transform="matrix(0.719, -0.695, 0.695, 0.719, 781.292, 359.575)" fill="#e0e4e8"/>
    <path id="Path_11" data-name="Path 11" d="M21.046,201.889a1.1,1.1,0,0,1-.3-1.2l7.385-17.465a.948.948,0,0,1,1-.6l8.084.9a.712.712,0,0,1,.6.3.909.909,0,0,1,.1,1.2A52.122,52.122,0,0,0,32.124,197.7a.919.919,0,0,1-1.1.7l-3.294-.4-5.489,3.892A.908.908,0,0,1,21.046,201.889Zm8.683-17.166L23.94,198.4l3.094-2.1a1.442,1.442,0,0,1,.7-.2l2.894.3a56.72,56.72,0,0,1,4.89-10.978Z" transform="matrix(0.719, -0.695, 0.695, 0.719, 791.509, 359.457)" fill="#183651"/>
    <path id="Path_12" data-name="Path 12" d="M117.27,57.4A51.525,51.525,0,0,0,154.3,7.893h0a51.645,51.645,0,0,0-49.5,37.027Z" transform="matrix(0.719, -0.695, 0.695, 0.719, 844.649, 520.249)" fill="#fff"/>
    <path id="Path_13" data-name="Path 13" d="M110.133,51.514a.906.906,0,0,1-.7-.3L96.959,38.739a.957.957,0,0,1-.3-1A53.063,53.063,0,0,1,147.16.016a.943.943,0,0,1,1,1,53.063,53.063,0,0,1-37.725,50.5ZM98.756,37.841l11.677,11.577A50.83,50.83,0,0,0,146.162,2.012,51.021,51.021,0,0,0,98.756,37.841Z" transform="matrix(0.719, -0.695, 0.695, 0.719, 854.562, 520.239)" fill="#183651"/>
    <path id="Path_14" data-name="Path 14" d="M368.476,25.857A51.171,51.171,0,0,0,371.67,7.892h0A53.542,53.542,0,0,0,353.7,11.086Z" transform="matrix(0.719, -0.695, 0.695, 0.719, 688.285, 671.249)" fill="#f06151"/>
    <path id="Path_15" data-name="Path 15" d="M361.6,19.976a.906.906,0,0,1-.7-.3L346.128,5.006a1.393,1.393,0,0,1-.3-.9,1.055,1.055,0,0,1,.6-.7A51.11,51.11,0,0,1,364.791.016a.943.943,0,0,1,1,1A52.409,52.409,0,0,1,362.5,19.378a.856.856,0,0,1-.7.6ZM348.723,4.707,361.2,17.182a48.909,48.909,0,0,0,2.595-15.17A48.914,48.914,0,0,0,348.723,4.707Z" transform="matrix(0.719, -0.695, 0.695, 0.719, 698.011, 671.419)" fill="#183651"/>
    <g id="Group_5" data-name="Group 5" transform="matrix(0.719, -0.695, 0.695, 0.719, 952.6, 456.08)">
      <rect id="Rectangle_2" data-name="Rectangle 2" width="1.996" height="1.996" transform="translate(1.411 2.823) rotate(-135)" fill="#183651"/>
      <rect id="Rectangle_3" data-name="Rectangle 3" width="1.996" height="1.996" transform="translate(5.592 7.02) rotate(-135)" fill="#183651"/>
      <rect id="Rectangle_4" data-name="Rectangle 4" width="1.996" height="1.996" transform="translate(9.774 11.217) rotate(-135)" fill="#183651"/>
    </g>
    <circle id="Ellipse_27" data-name="Ellipse 27" cx="6.088" cy="6.088" r="6.088" transform="matrix(0.719, -0.695, 0.695, 0.719, 952.115, 445.618)" fill="#2ea0da"/>
    <circle id="Ellipse_28" data-name="Ellipse 28" cx="1.098" cy="1.098" r="1.098" transform="matrix(0.719, -0.695, 0.695, 0.719, 961.196, 442.954)" fill="#fff"/>
    <path id="Path_19" data-name="Path 19" d="M129.349,253.653l-7.385.6-10.08,16.967,16.867-10.08Z" transform="matrix(0.719, -0.695, 0.695, 0.719, 691.107, 370.163)" fill="#e0e4e8"/>
    <path id="Path_20" data-name="Path 20" d="M104.278,265.039a1.061,1.061,0,0,1-.2-1.2l10.08-16.966a1.018,1.018,0,0,1,.8-.5l7.385-.6a1.03,1.03,0,0,1,1.1,1.1l-.6,7.385a1.018,1.018,0,0,1-.5.8l-16.967,10.08A.791.791,0,0,1,104.278,265.039Zm11.378-16.667-7.785,13.074,13.074-7.785.4-5.689Z" transform="matrix(0.719, -0.695, 0.695, 0.719, 700.854, 370.313)" fill="#183651"/>
  </g>
</svg>
