<svg xmlns="http://www.w3.org/2000/svg" width="383.006" height="98.325" viewBox="0 0 383.006 98.325">
  <path id="Union_1" data-name="Union 1" d="M-343.6,86.237V33.274h20.724V86.493q0,22.26,17.4,22.26,17.078,0,17.078-21.492V33.274h20.66v52q0,41.321-38.507,41.322Q-343.6,126.6-343.6,86.237ZM-123.51,125V33.274h52.9V50.1h-32.238V70.5h30V87.26h-30v20.981H-68.5V125Zm-44.353,0V70.118q0-8.891.768-19.637h-.512q-.447,2.047-1.023,4.093t-1.151,3.87q-.576,1.824-1.12,3.263t-.928,2.335l-17.4,33.454h-14.456l-16.823-33.582q-.257-.575-.7-1.823t-.959-3.006q-.512-1.759-1.056-3.934t-.928-4.669h-.575q.448,6.013.64,11.065t.192,8.508V125H-242.51V33.274h25.33L-201,65.129q.7,1.535,1.407,3.262t1.375,3.454q.672,1.727,1.216,3.358a22.434,22.434,0,0,1,.8,3.038h.32q.385-1.407.832-3.166t.959-3.55q.512-1.791,1.088-3.487A28.071,28.071,0,0,1-191.786,65l16.631-31.727h25.842V125ZM-415.9,125V92.761L-445,33.274h23.6L-406.621,67.5q.385.96,2.111,7.484h.256a33.331,33.331,0,0,1,1.983-7.228l15.032-34.477h21.876l-29.872,59.1V125Z" transform="translate(449.006 -30.774)" fill="none" stroke="#923b4c" stroke-width="5"/>
</svg>
